<svg width="18" height="18" viewBox="0 0 18 18" fill="none" xmlns="http://www.w3.org/2000/svg">
<g clip-path="url(#clip0_1_429)">
<path d="M11.5984 0.103958C11.5159 0.0170289 11.4027 -0.0351562 11.2854 -0.0351562H4.26366C2.96796 -0.0351562 1.89844 1.03011 1.89844 2.32567V15.6039C1.89844 16.8996 2.96796 17.9649 4.26366 17.9649H13.794C15.0897 17.9649 16.1593 16.8996 16.1593 15.6039V5.06045C16.1593 4.94743 16.1071 4.8388 16.0332 4.75613L11.5984 0.103958ZM11.7245 1.49964L14.6941 4.61701H12.7637C12.1898 4.61701 11.7245 4.15614 11.7245 3.58224V1.49964ZM13.794 17.0953H4.26366C3.45067 17.0953 2.76801 16.4214 2.76801 15.6039V2.32567C2.76801 1.51268 3.44628 0.834413 4.26366 0.834413H10.8549V3.58224C10.8549 4.63871 11.7072 5.48658 12.7637 5.48658H15.2897V15.6039C15.2897 16.4214 14.6114 17.0953 13.794 17.0953Z" fill="white"/>
<path d="M12.6071 14.0953H5.45059C5.2115 14.0953 5.01581 14.2909 5.01581 14.5301C5.01581 14.7692 5.2115 14.9649 5.45059 14.9649H12.6115C12.8506 14.9649 13.0463 14.7692 13.0463 14.5301C13.0463 14.2909 12.8506 14.0953 12.6071 14.0953Z" fill="white"/>
<path d="M8.7115 12.5345C8.79418 12.6214 8.9072 12.6736 9.02887 12.6736C9.15068 12.6736 9.2637 12.6214 9.34624 12.5345L11.8941 9.79967C12.0593 9.62568 12.0463 9.34745 11.8724 9.18664C11.6984 9.02143 11.4202 9.03434 11.2594 9.20833L9.46366 11.1344V6.38663C9.46366 6.1474 9.26796 5.95184 9.02887 5.95184C8.78978 5.95184 8.59409 6.1474 8.59409 6.38663V11.1344L6.80276 9.20833C6.63755 9.03448 6.36358 9.02143 6.18972 9.18664C6.01586 9.35184 6.00282 9.62582 6.16803 9.79967L8.7115 12.5345Z" fill="white"/>
</g>
<defs>
<clipPath id="clip0_1_429">
<rect width="18" height="18" fill="white"/>
</clipPath>
</defs>
</svg>
